# xmcd
#
# Track frame offsets: 
#        150
#        18185
#        32812
#        44543
#        63157
#        73476
#        82399
#        100942
#        116616
#        128610
#        149106
#        165192
#        171260
#
# Disc length: 2485 seconds
#
# Revision: 0
# Processed by: cddbd v1.5.2PL0 Copyright (c) Steve Scherf et al.
# Submitted via: ExactAudioCopy v1.0b1
#
DISCID=ba09b30d
DTITLE=Roger Alan Wade - Dequello Motel
DYEAR=2010
DGENRE=Country
TTITLE0=Deguello Motel
TTITLE1=Rock, Powder, Pills
TTITLE2=Cowboy Angel
TTITLE3=Here I Go Again
TTITLE4=Honkey Tonk Rose
TTITLE5=Deguello Lullaby
TTITLE6=Old Dixie Highway
TTITLE7=Ruins Of Paradise
TTITLE8=When Heaven Comes Dripping From The Night
TTITLE9=Johnny and Laranda
TTITLE10=Far Journey From My Home
TTITLE11=Cowboy Angel (Reprise)
TTITLE12=3rd Chance Blues
EXTD=
EXTT0=
EXTT1=
EXTT2=
EXTT3=
EXTT4=
EXTT5=
EXTT6=
EXTT7=
EXTT8=
EXTT9=
EXTT10=
EXTT11=
EXTT12=
PLAYORDER=
